solid OpenSCAD_Model
  facet normal 1 -0 0
    outer loop
      vertex 1.6 -3.4 0
      vertex 1.6 3.4 -2.1
      vertex 1.6 3.4 0
    endloop
  endfacet
  facet normal 1 0 0
    outer loop
      vertex 1.6 3.4 -2.1
      vertex 1.6 -3.4 0
      vertex 1.6 -3.4 -2.1
    endloop
  endfacet
  facet normal -1 0 0
    outer loop
      vertex -1.6 -3.4 -2.1
      vertex -1.6 3.4 0
      vertex -1.6 3.4 -2.1
    endloop
  endfacet
  facet normal -1 -0 0
    outer loop
      vertex -1.6 3.4 0
      vertex -1.6 -3.4 -2.1
      vertex -1.6 -3.4 0
    endloop
  endfacet
  facet normal 0 0 -1
    outer loop
      vertex -1.6 -3.4 -2.1
      vertex 1.6 3.4 -2.1
      vertex 1.6 -3.4 -2.1
    endloop
  endfacet
  facet normal -0 0 -1
    outer loop
      vertex 1.6 3.4 -2.1
      vertex -1.6 -3.4 -2.1
      vertex -1.6 3.4 -2.1
    endloop
  endfacet
  facet normal 0 1 -0
    outer loop
      vertex 1.6 3.4 -2.1
      vertex -1.6 3.4 0
      vertex 1.6 3.4 0
    endloop
  endfacet
  facet normal 0 1 0
    outer loop
      vertex -1.6 3.4 0
      vertex 1.6 3.4 -2.1
      vertex -1.6 3.4 -2.1
    endloop
  endfacet
  facet normal 0 -1 0
    outer loop
      vertex -1.6 -3.4 -2.1
      vertex 1.6 -3.4 0
      vertex -1.6 -3.4 0
    endloop
  endfacet
  facet normal 0 -1 -0
    outer loop
      vertex 1.6 -3.4 0
      vertex -1.6 -3.4 -2.1
      vertex 1.6 -3.4 -2.1
    endloop
  endfacet
  facet normal 0 0 1
    outer loop
      vertex 1.6 3.4 0
      vertex 1.4824 3.25312 0
      vertex 1.6 -3.4 0
    endloop
  endfacet
  facet normal 0 0 1
    outer loop
      vertex 1.6 3.4 0
      vertex -1.4824 3.25312 0
      vertex 1.4824 3.25312 0
    endloop
  endfacet
  facet normal 0 0 1
    outer loop
      vertex -1.4824 3.25312 0
      vertex -1.6 3.4 0
      vertex -1.4824 -3.25312 0
    endloop
  endfacet
  facet normal -0 0 1
    outer loop
      vertex -1.6 3.4 0
      vertex -1.4824 3.25312 0
      vertex 1.6 3.4 0
    endloop
  endfacet
  facet normal -0 0 1
    outer loop
      vertex 1.4824 -3.25312 0
      vertex 1.6 -3.4 0
      vertex 1.4824 3.25312 0
    endloop
  endfacet
  facet normal -0 0 1
    outer loop
      vertex -1.4824 -3.25312 0
      vertex 1.6 -3.4 0
      vertex 1.4824 -3.25312 0
    endloop
  endfacet
  facet normal 0 0 1
    outer loop
      vertex -1.4824 -3.25312 0
      vertex -1.6 -3.4 0
      vertex 1.6 -3.4 0
    endloop
  endfacet
  facet normal 0 0 1
    outer loop
      vertex -1.6 -3.4 0
      vertex -1.4824 -3.25312 0
      vertex -1.6 3.4 0
    endloop
  endfacet
  facet normal -1 0 0
    outer loop
      vertex 1.36 -3.128 -1.89
      vertex 1.36 3.128 0.39
      vertex 1.36 3.128 -1.89
    endloop
  endfacet
  facet normal -1 -0 0
    outer loop
      vertex 1.36 3.128 0.39
      vertex 1.36 -3.128 -1.89
      vertex 1.36 -3.128 0.39
    endloop
  endfacet
  facet normal 1 -0 0
    outer loop
      vertex -1.36 -3.128 0.39
      vertex -1.36 3.128 -1.89
      vertex -1.36 3.128 0.39
    endloop
  endfacet
  facet normal 1 0 0
    outer loop
      vertex -1.36 3.128 -1.89
      vertex -1.36 -3.128 0.39
      vertex -1.36 -3.128 -1.89
    endloop
  endfacet
  facet normal -0 0 1
    outer loop
      vertex -1.36 3.128 -1.89
      vertex 1.36 -3.128 -1.89
      vertex 1.36 3.128 -1.89
    endloop
  endfacet
  facet normal 0 0 1
    outer loop
      vertex 1.36 -3.128 -1.89
      vertex -1.36 3.128 -1.89
      vertex -1.36 -3.128 -1.89
    endloop
  endfacet
  facet normal 0 -1 0
    outer loop
      vertex -1.36 3.128 -1.89
      vertex 1.36 3.128 0.39
      vertex -1.36 3.128 0.39
    endloop
  endfacet
  facet normal 0 -1 -0
    outer loop
      vertex 1.36 3.128 0.39
      vertex -1.36 3.128 -1.89
      vertex 1.36 3.128 -1.89
    endloop
  endfacet
  facet normal 0 1 -0
    outer loop
      vertex 1.36 -3.128 -1.89
      vertex -1.36 -3.128 0.39
      vertex 1.36 -3.128 0.39
    endloop
  endfacet
  facet normal 0 1 0
    outer loop
      vertex -1.36 -3.128 0.39
      vertex 1.36 -3.128 -1.89
      vertex -1.36 -3.128 -1.89
    endloop
  endfacet
  facet normal 1 -0 0
    outer loop
      vertex 1.4824 -3.25312 0.39
      vertex 1.4824 3.25312 0
      vertex 1.4824 3.25312 0.39
    endloop
  endfacet
  facet normal 1 0 0
    outer loop
      vertex 1.4824 3.25312 0
      vertex 1.4824 -3.25312 0.39
      vertex 1.4824 -3.25312 0
    endloop
  endfacet
  facet normal -1 0 0
    outer loop
      vertex -1.4824 -3.25312 0
      vertex -1.4824 3.25312 0.39
      vertex -1.4824 3.25312 0
    endloop
  endfacet
  facet normal -1 -0 0
    outer loop
      vertex -1.4824 3.25312 0.39
      vertex -1.4824 -3.25312 0
      vertex -1.4824 -3.25312 0.39
    endloop
  endfacet
  facet normal 0 1 -0
    outer loop
      vertex 1.4824 3.25312 0
      vertex -1.4824 3.25312 0.39
      vertex 1.4824 3.25312 0.39
    endloop
  endfacet
  facet normal 0 1 0
    outer loop
      vertex -1.4824 3.25312 0.39
      vertex 1.4824 3.25312 0
      vertex -1.4824 3.25312 0
    endloop
  endfacet
  facet normal 0 -1 0
    outer loop
      vertex -1.4824 -3.25312 0
      vertex 1.4824 -3.25312 0.39
      vertex -1.4824 -3.25312 0.39
    endloop
  endfacet
  facet normal 0 -1 -0
    outer loop
      vertex 1.4824 -3.25312 0.39
      vertex -1.4824 -3.25312 0
      vertex 1.4824 -3.25312 0
    endloop
  endfacet
  facet normal 0 0 1
    outer loop
      vertex 1.4824 3.25312 0.39
      vertex 1.36 3.128 0.39
      vertex 1.4824 -3.25312 0.39
    endloop
  endfacet
  facet normal 0 0 1
    outer loop
      vertex 1.4824 3.25312 0.39
      vertex -1.36 3.128 0.39
      vertex 1.36 3.128 0.39
    endloop
  endfacet
  facet normal 0 0 1
    outer loop
      vertex -1.36 3.128 0.39
      vertex -1.4824 3.25312 0.39
      vertex -1.36 -3.128 0.39
    endloop
  endfacet
  facet normal -0 0 1
    outer loop
      vertex -1.4824 3.25312 0.39
      vertex -1.36 3.128 0.39
      vertex 1.4824 3.25312 0.39
    endloop
  endfacet
  facet normal -0 0 1
    outer loop
      vertex 1.36 -3.128 0.39
      vertex 1.4824 -3.25312 0.39
      vertex 1.36 3.128 0.39
    endloop
  endfacet
  facet normal -0 0 1
    outer loop
      vertex -1.36 -3.128 0.39
      vertex 1.4824 -3.25312 0.39
      vertex 1.36 -3.128 0.39
    endloop
  endfacet
  facet normal 0 0 1
    outer loop
      vertex -1.36 -3.128 0.39
      vertex -1.4824 -3.25312 0.39
      vertex 1.4824 -3.25312 0.39
    endloop
  endfacet
  facet normal 0 0 1
    outer loop
      vertex -1.4824 -3.25312 0.39
      vertex -1.36 -3.128 0.39
      vertex -1.4824 3.25312 0.39
    endloop
  endfacet
endsolid OpenSCAD_Model
